:version 1.10
:name ASF
:units
  mass 1
  length 1
  angle deg
:documentation
  ASF file generated by Kaydara
:root
  axis xyz
  order  tx ty tz rx ry rz
  position 0 0 0
  orientation 0 0 0
:bonedata
  begin
    id 1
    name RightUpLegDummy
    direction -0.718183 -0.695806 0.00816078
    length 4.904
    axis 0 0 0 xyz
  end
  begin
    id 2
    name RightUpLeg
    direction 3.53989e-006 -0.995788 0.0916897
    length 17.4976
    axis -3.49089 -0.000906621 0.000287158 xyz
    dof rx ry rz
  end
  begin
    id 3
    name RightLeg
    direction 0.00371093 -0.995096 -0.0988418
    length 16.5821
    axis 3.68512 0.0193738 -0.131023 xyz
    dof rx ry rz
  end
  begin
    id 4
    name RightFoot
    direction 0.000791514 -0.46099 0.887405
    length 3.77069
    axis 4.84075e-005 -0.120479 -0.188788 xyz
    dof rx ry rz
  end
  begin
    id 5
    name RightToes
    direction 0.00124746 -0.014064 0.9999
    length 3.85082
    axis 0.00048216 0.542163 -0.142577 xyz
    dof rx ry rz
  end
  begin
    id 6
    name SpineDummy
    direction 8.36599e-015 1 5.97571e-016
    length 4.6813
    axis 0 0 0 xyz
  end
  begin
    id 7
    name Spine
    direction -4.63632e-008 0.999988 0.00495137
    length 10.1015
    axis -0.00138897 0.000121419 3.25764e-006 xyz
    dof rx ry rz
  end
  begin
    id 8
    name Spine1
    direction 0 0 0
    length 0
    axis -0.00138896 0.000121452 2.39764e-006 xyz
    dof rx ry rz
  end
  begin
    id 9
    name HEadDummy
    direction -3.91456e-008 0.999999 0.00127422
    length 3.43865
    axis -0.00138896 0.000121452 2.39764e-006 xyz
  end
  begin
    id 10
    name HEad
    direction -0.0222688 0.980941 0.193023
    length 5.12695
    axis -0.00138895 0.000121452 2.39764e-006 xyz
    dof rx ry rz
  end
  begin
    id 11
    name LeftShoulder1Dummy
    direction 0.998891 -0.0402508 -0.0244456
    length 3.5433
    axis -0.00138896 0.000121452 2.39764e-006 xyz
  end
  begin
    id 12
    name LeftShoulder1
    direction 0.99951 -0.000327743 0.0313091
    length 4.05031
    axis -0.00138896 0.000121452 2.39764e-006 xyz
    dof rx ry rz
  end
  begin
    id 13
    name LeftArm
    direction 0.998561 -0.00100054 -0.0536182
    length 10.3537
    axis -23.1894 0.134784 0.96751 xyz
    dof rx ry rz
  end
  begin
    id 14
    name LeftForeArm
    direction 0.998903 0.00866434 0.046012
    length 8.70632
    axis -9.91835 -0.06569 -0.177792 xyz
    dof rx ry rz
  end
  begin
    id 15
    name LeftHand
    direction 0.992938 -0.0411636 0.11126
    length 5.32135
    axis -0.00960227 -0.00340091 0.185174 xyz
    dof rx ry rz
  end
  begin
    id 16
    name RightShoulderDummy
    direction -0.998891 -0.0402509 -0.0244414
    length 3.5433
    axis -0.00138896 0.000121452 2.39764e-006 xyz
  end
  begin
    id 17
    name RightShoulder
    direction -0.99951 -0.000327827 0.0313133
    length 4.05031
    axis 0.215806 0.000203644 -0.00680151 xyz
    dof rx ry rz
  end
  begin
    id 18
    name RightArm
    direction -0.998573 -0.000999583 -0.053403
    length 10.3947
    axis -23.2009 -0.134239 -0.9641 xyz
    dof rx ry rz
  end
  begin
    id 19
    name RightForeArm
    direction -0.998898 0.00868026 0.0461306
    length 8.68355
    axis -9.92322 0.0658061 0.178869 xyz
    dof rx ry rz
  end
  begin
    id 20
    name RightHand
    direction -0.992843 -0.0414603 0.112003
    length 5.28593
    axis -0.00960634 0.00330671 -0.185226 xyz
    dof rx ry rz
  end
  begin
    id 21
    name LeftUpLegDummy
    direction 0.718183 -0.695806 0.00816078
    length 4.904
    axis 0 0 0 xyz
  end
  begin
    id 22
    name LeftUpLeg
    direction -6.8115e-006 -0.995793 0.0916336
    length 17.4976
    axis -3.48766 0.00143441 -0.000523914 xyz
    dof rx ry rz
  end
  begin
    id 23
    name LeftLeg
    direction -0.00601357 -0.995091 -0.0987824
    length 16.5821
    axis 3.68177 -0.00654038 -0.00028478 xyz
    dof rx ry rz
  end
  begin
    id 24
    name LeftFoot
    direction -0.00417578 -0.460984 0.887399
    length 3.77069
    axis 1.87232e-006 4.66002e-005 -8.1837e-006 xyz
    dof rx ry rz
  end
  begin
    id 25
    name LeftToes
    direction 0.00818058 -0.00485161 0.999955
    length 3.85048
    axis 1.06246e-005 4.65855e-005 -8.18502e-006 xyz
    dof rx ry rz
  end
:hierarchy
  begin
    root RightUpLegDummy SpineDummy LeftUpLegDummy
    RightUpLegDummy RightUpLeg
    RightUpLeg RightLeg
    RightLeg RightFoot
    RightFoot RightToes
    SpineDummy Spine
    Spine Spine1
    Spine1 HEadDummy LeftShoulder1Dummy RightShoulderDummy
    HEadDummy HEad
    LeftShoulder1Dummy LeftShoulder1
    LeftShoulder1 LeftArm
    LeftArm LeftForeArm
    LeftForeArm LeftHand
    RightShoulderDummy RightShoulder
    RightShoulder RightArm
    RightArm RightForeArm
    RightForeArm RightHand
    LeftUpLegDummy LeftUpLeg
    LeftUpLeg LeftLeg
    LeftLeg LeftFoot
    LeftFoot LeftToes
  end

:SAMPLES-PER-SECOND 30
:FULLY-SPECIFIED
:DEGREES
1
root  3.87886 39.8841 13.0061 177.196 -13.1389 -179.096
RightUpLeg  -1.6306 -6.46902 1.21559
RightLeg  11.5501 -8.4095 -0.499378
RightFoot  -6.69971 0.0353351 -1.99063
RightToes  -1.33073e-015 0 -3.6325e-017
Spine  1.27357 0.373937 15.1226
Spine1  17.3936 0.944825 -0.519262
HEad  9.84832 -12.5363 1.8543
LeftShoulder1  7.19315 -14.8653 -33.1379
LeftArm  33.7019 -10.1263 -46.9661
LeftForeArm  -9.29088 -29.6287 -6.92726
LeftHand  -0.246645 0.021 5.37786
RightShoulder  8.08833 15.5439 36.4504
RightArm  17.7466 18.9891 35.7799
RightForeArm  -10.5278 30.9216 7.32786
RightHand  -0.24729 -0.0210522 -5.37781
LeftUpLeg  -11.8196 9.1186 9.92311
LeftLeg  21.2081 -22.8659 -9.1688
LeftFoot  -2.40989 1.12259 -14.1255
LeftToes  5.09284e-011 3.02203e-011 3.83118e-011
2
root  3.83103 39.9067 13.0319 177.274 -13.1524 -179.132
RightUpLeg  -1.59859 -6.42999 1.12203
RightLeg  11.2638 -8.45165 -0.494402
RightFoot  -6.50147 0.0373987 -1.92683
RightToes  -1.33073e-015 0 -3.6325e-017
Spine  1.29559 0.390121 15.0809
Spine1  17.4481 0.966667 -0.56658
HEad  9.91099 -12.5956 1.97595
LeftShoulder1  7.20479 -14.9168 -33.0911
LeftArm  34.6802 -11.5012 -47.6781
LeftForeArm  -9.87423 -29.7488 -6.98692
LeftHand  -0.246645 0.021 5.37786
RightShoulder  8.11844 15.5947 36.4932
RightArm  17.9393 19.8533 35.9225
RightForeArm  -10.7693 30.606 7.25788
RightHand  -0.24729 -0.0210522 -5.37781
LeftUpLeg  -11.6588 8.5374 10.4196
LeftLeg  20.2383 -20.7995 -7.9724
LeftFoot  -2.81326 0.970276 -12.7286
LeftToes  5.09284e-011 3.02203e-011 3.83118e-011
3
root  3.72863 39.9506 13.0673 177.427 -13.0127 -179.212
RightUpLeg  -1.53109 -6.35093 0.925723
RightLeg  10.7295 -8.37186 -0.482516
RightFoot  -6.14159 0.0398746 -1.79405
RightToes  -1.33073e-015 0 -3.6325e-017
Spine  1.36203 0.448549 14.857
Spine1  17.5172 1.01802 -0.578944
HEad  10.106 -12.643 2.16559
LeftShoulder1  7.21222 -15.0032 -32.9483
LeftArm  36.2132 -13.9284 -49.2287
LeftForeArm  -10.8702 -29.891 -7.07277
LeftHand  -0.246645 0.021 5.37786
RightShoulder  8.19697 15.7013 36.6603
RightArm  18.6866 21.4672 36.2181
RightForeArm  -11.345 29.8371 7.08879
RightHand  -0.24729 -0.0210522 -5.37781
LeftUpLeg  -11.1432 7.68975 11.3229
LeftLeg  18.177 -16.2722 -5.58545
LeftFoot  -2.73943 0.748072 -9.74889
LeftToes  5.09284e-011 3.02203e-011 3.83118e-011
4
root  3.5904 39.9879 13.0899 177.579 -12.8229 -179.246
RightUpLeg  -1.47276 -6.32002 0.697037
RightLeg  10.2627 -8.18698 -0.42936
RightFoot  -5.82567 0.0399102 -1.64734
RightToes  -1.33073e-015 0 -3.6325e-017
Spine  1.49175 0.427249 14.4859
Spine1  17.5071 0.961115 -0.496537
HEad  10.3664 -12.6665 2.39076
LeftShoulder1  7.20993 -15.1054 -32.7211
LeftArm  37.3353 -16.1483 -51.0722
LeftForeArm  -12.1385 -30.0319 -7.17148
LeftHand  -0.246645 0.021 5.37786
RightShoulder  8.31954 15.8437 36.9689
RightArm  20.0481 23.1519 36.5945
RightForeArm  -12.0514 28.8197 6.8665
RightHand  -0.24729 -0.0210522 -5.37781
LeftUpLeg  -10.345 6.58991 12.221
LeftLeg  15.7197 -11.1786 -3.23397
LeftFoot  -1.43235 0.608097 -6.92312
LeftToes  5.09284e-011 3.02203e-011 3.83118e-011
5
root  3.41941 40.0031 13.1025 177.691 -12.7811 -179.153
RightUpLeg  -1.4627 -6.37659 0.491097
RightLeg  10.0199 -8.02714 -0.321988
RightFoot  -5.6373 0.0357301 -1.48359
RightToes  -1.33073e-015 0 -3.6325e-017
Spine  1.64766 0.253526 14.084
Spine1  17.4914 0.700321 -0.270285
HEad  10.5709 -12.758 2.66011
LeftShoulder1  7.22603 -15.2346 -32.5385
LeftArm  38.1919 -17.8784 -52.8669
LeftForeArm  -14.5519 -30.1294 -7.31346
LeftHand  -0.246645 0.021 5.37786
RightShoulder  8.43876 15.9855 37.2574
RightArm  21.5559 24.6265 37.0469
RightForeArm  -12.7406 27.8692 6.66474
RightHand  -0.24729 -0.0210522 -5.37781
LeftUpLeg  -9.47117 5.50751 12.9413
LeftLeg  13.3424 -8.25222 -1.86828
LeftFoot  0.371375 0.572277 -5.58199
LeftToes  5.09284e-011 3.02203e-011 3.83118e-011
6
root  3.20787 39.9958 13.1136 177.78 -12.8582 -178.926
RightUpLeg  -1.54063 -6.45936 0.342932
RightLeg  10.0071 -7.94115 -0.231681
RightFoot  -5.57168 0.0254556 -1.25392
RightToes  -1.33073e-015 0 -3.6325e-017
Spine  1.78402 0.0176904 13.7071
Spine1  17.592 0.311689 0.153131
HEad  10.7244 -12.9605 2.8878
LeftShoulder1  7.27219 -15.3815 -32.4812
LeftArm  39.3804 -19.516 -54.7049
LeftForeArm  -18.59 -30.006 -7.4702
LeftHand  -0.246645 0.021 5.37786
RightShoulder  8.50909 16.0921 37.3755
RightArm  22.6378 25.9425 37.6017
RightForeArm  -13.3178 27.0797 6.5007
RightHand  -0.24729 -0.0210522 -5.37781
LeftUpLeg  -8.63626 5.48327 13.4446
LeftLeg  11.2011 -8.99535 -1.50447
LeftFoot  1.44609 0.616961 -5.5795
LeftToes  5.09284e-011 3.02203e-011 3.83118e-011
7
root  2.95234 39.977 13.1219 177.874 -12.8455 -178.625
RightUpLeg  -1.68108 -6.50132 0.23445
RightLeg  10.0939 -7.83727 -0.205171
RightFoot  -5.56284 0.00965007 -0.938105
RightToes  -1.33073e-015 0 -3.6325e-017
Spine  1.91761 -0.169583 13.3434
Spine1  17.7727 -0.0584564 0.687338
HEad  10.9977 -13.1921 2.97826
LeftShoulder1  7.3214 -15.524 -32.4501
LeftArm  40.6346 -21.0989 -56.6876
LeftForeArm  -23.2444 -29.5707 -7.5628
LeftHand  -0.246645 0.021 5.37786
RightShoulder  8.54886 16.1708 37.4018
RightArm  23.4308 27.1654 38.2231
RightForeArm  -13.7668 26.2807 6.33112
RightHand  -0.24729 -0.0210522 -5.37781
LeftUpLeg  -7.80515 6.64226 13.7631
LeftLeg  9.32488 -11.7997 -1.60889
LeftFoot  1.56247 0.686658 -6.15576
LeftToes  5.09284e-011 3.02203e-011 3.83118e-011
8
root  2.66051 39.9713 13.1221 177.997 -12.6026 -178.334
RightUpLeg  -1.74177 -6.50363 0.0853123
RightLeg  9.95749 -7.54582 -0.157513
RightFoot  -5.43129 -0.00813226 -0.557041
RightToes  -1.33073e-015 0 -3.6325e-017
Spine  2.07023 -0.303802 12.9681
Spine1  17.9566 -0.336013 1.08507
HEad  11.5225 -13.3667 3.00203
LeftShoulder1  7.35299 -15.6606 -32.3388
LeftArm  41.0425 -22.2025 -58.5463
LeftForeArm  -27.2736 -29.0154 -7.58501
LeftHand  -0.246645 0.021 5.37786
RightShoulder  8.60729 16.2567 37.5039
RightArm  24.6357 28.2773 38.806
RightForeArm  -14.2576 25.3781 6.14192
RightHand  -0.24729 -0.0210522 -5.37781
LeftUpLeg  -6.93168 8.12015 13.8986
LeftLeg  7.66367 -14.0278 -1.70934
LeftFoot  1.45929 0.784779 -7.06891
LeftToes  5.09284e-011 3.02203e-011 3.83118e-011
9
root  2.33795 39.9992 13.1179 178.182 -12.1281 -178.114
RightUpLeg  -1.64061 -6.48036 -0.172023
RightLeg  9.36415 -6.98952 -0.0340016
RightFoot  -5.0222 -0.0273845 -0.123207
RightToes  -1.33073e-015 0 -3.6325e-017
Spine  2.21774 -0.401678 12.5293
Spine1  18.2056 -0.522056 1.24352
HEad  12.2106 -13.5238 3.12977
LeftShoulder1  7.38032 -15.7897 -32.222
LeftArm  40.4939 -22.7584 -59.9786
LeftForeArm  -30.7069 -28.5982 -7.60935
LeftHand  -0.246645 0.021 5.37786
RightShoulder  8.6891 16.3574 37.6872
RightArm  26.4048 29.2873 39.273
RightForeArm  -14.9386 24.5079 5.9703
RightHand  -0.24729 -0.0210522 -5.37781
LeftUpLeg  -6.07493 9.3507 13.9055
LeftLeg  6.15166 -14.7842 -1.75461
LeftFoot  1.70373 0.930935 -8.22093
LeftToes  5.09284e-011 3.02203e-011 3.83118e-011
